<svg xmlns="http://www.w3.org/2000/svg" xmlns:xlink="http://www.w3.org/1999/xlink" viewBox="0 0 882.07 220.07"><defs><style>.cls-1{filter:url(#luminosity-noclip);}.cls-2{mask:url(#mask);}.cls-3{fill:#0079c6;opacity:0.5;}.cls-4,.cls-5{fill:#6da9d0;}.cls-4{fill-rule:evenodd;}</style><filter id="luminosity-noclip" x="274.94" y="37.67" width="607.13" height="144.74" filterUnits="userSpaceOnUse" color-interpolation-filters="sRGB"><feFlood flood-color="#fff" result="bg"/><feBlend in="SourceGraphic" in2="bg"/></filter><mask id="mask" x="274.94" y="37.67" width="607.13" height="144.74" maskUnits="userSpaceOnUse"><path class="cls-1" d="M816.35,133.64c-12.05,0-21.09-8.8-21.1-22s9-22,21.06-22.07,21.09,8.91,21.1,22S828.29,133.63,816.35,133.64Zm.49-50.77c-9.36,0-17.21,4.11-21.83,11.64V83.33h-7.31l.07,77.45h7.64l0-31.52c4.74,7.31,12.49,11.18,21.52,11.17,16.14,0,28.17-11.64,28.16-28.85S833,82.86,816.84,82.87Zm-64.1,11.58V83.37h-7.31l.05,56.58h7.64l0-28.82c0-13.34,7.19-20.88,19-20.89.54,0,1.18.11,1.83.11V82.92C763.49,82.93,756.28,86.91,752.74,94.45Zm-51.59,39.31c-12,0-21.09-8.8-21.1-22s9-22.06,21.06-22.07,21,8.8,21,22S713.2,133.74,701.15,133.76Zm0,6.77c16.56,0,28.7-12.07,28.69-28.85S717.67,83,701.1,83s-28.81,12-28.8,28.74S684.59,140.55,701.16,140.53Zm-63.68.17c11.08,0,21-3.78,27.63-11.1l-5.06-5c-6.12,6.35-13.65,9-22.25,9-18.18,0-31.86-13.31-31.87-31.16s13.63-31.21,31.81-31.22c8.6,0,16.13,2.67,22.27,8.9l5-5.06c-6.68-7.31-16.58-11-27.55-10.94-22.69,0-39.46,16.28-39.43,38.33S614.89,140.72,637.48,140.7ZM585.69,83.53l-21.25,48.1L543.09,83.57h-8L560.46,140,558,145.51c-3.22,7.1-6.66,9.47-11.72,9.48a14.12,14.12,0,0,1-10.33-4.3l-3.54,5.71c3.44,3.44,8.5,5.15,13.77,5.15,8.07,0,14.09-3.56,18.81-14.65l28.23-63.38Zm-57.76,0-21.36,48.21L485.33,83.62h-8l25.12,56.56h7.85l25.12-56.6ZM445.26,134c-12.05,0-21.09-8.8-21.1-22s9-22.06,21.06-22.07,21.09,8.91,21.1,22S457.2,134,445.26,134Zm.49-50.77c-9.36,0-17.21,4.11-21.83,11.64V83.68H416.6l.07,77.45h7.64l0-31.52c4.74,7.31,12.49,11.18,21.52,11.17,16.14,0,28.17-11.65,28.16-28.86S461.88,83.22,445.75,83.23Zm-58,57.07h7.64l-.06-56.58h-7.63Zm3.81-69a5.49,5.49,0,0,0,5.58-5.6,5.42,5.42,0,0,0-5.59-5.27,5.44,5.44,0,1,0,0,10.87Zm-69,62.13,49.74-63V65l-59.7.06V72l49.15,0-49.85,63v5.49l61.74-.06v-6.88Z"/></mask></defs><g id="Layer_2" data-name="Layer 2"><g id="Layer_1-2" data-name="Layer 1"><g class="cls-2"><rect class="cls-3" x="275.01" y="37.96" width="606.99" height="144.15"/></g><path class="cls-4" d="M111.92,101,100,113a14.17,14.17,0,0,1-7.15,3.77,4,4,0,0,1-.69.07,3.39,3.39,0,0,1-.68-6.71,7.31,7.31,0,0,0,3.73-1.93l11.93-11.94a7.8,7.8,0,0,0,2.17-6.08A11.24,11.24,0,0,0,99.11,80,7.74,7.74,0,0,0,93,82.13l-12,11.94a7.26,7.26,0,0,0-1.92,3.73,3.39,3.39,0,0,1-6.64-1.38,14.08,14.08,0,0,1,3.76-7.15L88.24,77.33A14.4,14.4,0,0,1,99.52,73.2a18,18,0,0,1,16.53,16.53A14.43,14.43,0,0,1,111.92,101ZM90.46,94a3.39,3.39,0,0,1,4.8,4.79L68,126.07a3.39,3.39,0,1,1-4.8-4.79Zm-4.55,29.64a14.16,14.16,0,0,1-3.77,7.16l-12,11.94a14.41,14.41,0,0,1-10.3,4.15,17.52,17.52,0,0,1-12.3-5.23c-6.52-6.53-7-16.67-1.08-22.6l11.94-11.94a14.08,14.08,0,0,1,7.16-3.77A3.39,3.39,0,0,1,67,110a7.23,7.23,0,0,0-3.74,1.93L51.31,123.86c-3.29,3.28-2.8,9.12,1.08,13s9.72,4.36,13,1.07L77.34,126a7.31,7.31,0,0,0,1.93-3.73,3.39,3.39,0,0,1,6.64,1.37Zm72.52-42.11a24.77,24.77,0,0,0-1.16-8c-2.49-7.54-6.69-13.79-13.72-17.85Q119,41.54,94.56,27.35a29.33,29.33,0,0,0-14.22-4,29.26,29.26,0,0,0-15.83,3.73C48.06,36.6,31.51,46,15.13,55.66,5.36,61.44.23,70.31.1,81.64c-.2,19,0,37.9-.06,56.85A25.42,25.42,0,0,0,1.37,147c2.57,7.32,6.74,13.4,13.63,17.37q24.32,14,48.58,28.09A30.89,30.89,0,0,0,94,193q24.51-14.22,49.08-28.35A29.42,29.42,0,0,0,153.91,154c2.59-4.3,4.42-8.9,4.46-14,.09-10,0-20,0-29.95h0C158.43,100.54,158.41,91,158.43,81.53Z"/><rect class="cls-5" x="232.05" width="3.19" height="220.07"/></g></g></svg>